<?xml version="1.0" standalone="no"?>
<!DOCTYPE svg PUBLIC "-//W3C//DTD SVG 20010904//EN"
 "http://www.w3.org/TR/2001/REC-SVG-20010904/DTD/svg10.dtd">
<svg version="1.0" xmlns="http://www.w3.org/2000/svg"
 width="512.000000pt" height="512.000000pt" viewBox="0 0 512.000000 512.000000"
 preserveAspectRatio="xMidYMid meet">
<metadata>
Created by potrace 1.16, written by Peter Selinger 2001-2019
</metadata>
<g transform="translate(0.000000,512.000000) scale(0.100000,-0.100000)"
fill="#000000" stroke="none">
<path d="M3496 4479 c-39 -11 -85 -56 -107 -104 -9 -22 -22 -84 -28 -138 -16
-139 -20 -154 -141 -524 -88 -267 -211 -700 -210 -740 0 -4 34 61 75 146 122
250 187 351 286 445 126 120 168 181 152 222 -3 8 -18 14 -35 14 -38 0 -71
-37 -133 -147 -64 -114 -178 -285 -169 -253 14 49 136 323 178 399 45 81 99
159 174 251 l45 55 -52 -50 c-81 -77 -163 -193 -216 -304 -27 -55 -50 -99 -52
-97 -5 4 81 195 135 301 37 71 66 110 141 188 111 113 125 135 125 200 0 90
-86 160 -168 136z"/>
<path d="M1676 4464 c-24 -23 -20 -57 20 -158 66 -166 359 -754 370 -743 3 2
-16 56 -42 118 -68 165 -147 388 -199 557 -57 185 -71 217 -101 231 -31 14
-30 14 -48 -5z"/>
<path d="M2683 4322 c-19 -13 -21 -54 -7 -205 8 -84 18 -231 22 -327 l9 -175
2 140 c0 77 6 226 11 330 6 105 8 200 6 211 -6 24 -27 36 -43 26z"/>
<path d="M1895 4256 c-19 -29 -16 -54 30 -221 35 -124 114 -349 135 -382 11
-17 11 -17 6 0 -58 186 -59 187 -65 393 -7 219 -11 234 -62 234 -19 0 -34 -8
-44 -24z"/>
<path d="M777 4203 c-4 -3 -7 -18 -7 -32 0 -20 59 -85 273 -299 149 -150 322
-317 382 -371 223 -198 285 -252 285 -246 0 3 -40 54 -90 112 -88 106 -105
133 -154 245 -19 44 -36 65 -72 90 -69 48 -150 120 -363 326 -157 151 -195
182 -219 182 -16 0 -32 -3 -35 -7z"/>
<path d="M1314 4029 c-19 -22 -13 -43 19 -63 12 -8 21 -5 36 8 26 23 26 38 3
59 -24 22 -35 21 -58 -4z"/>
<path d="M2411 4016 c-17 -20 -4 -56 18 -56 28 0 47 28 34 48 -14 23 -37 26
-52 8z"/>
<path d="M2226 3924 c-19 -18 -19 -20 -6 -45 12 -21 40 -25 58 -7 18 18 14 46
-7 58 -25 13 -27 13 -45 -6z"/>
<path d="M1406 3871 c-41 -46 18 -107 64 -66 25 23 26 47 2 68 -24 22 -45 21
-66 -2z"/>
<path d="M2529 3868 c-7 -12 -16 -47 -20 -78 -8 -53 -8 -52 -4 15 4 58 2 67
-8 50 -7 -11 -12 -53 -11 -95 0 -46 -2 -65 -7 -50 -10 37 -10 100 0 138 6 20
6 30 0 27 -15 -10 -40 -64 -49 -108 l-8 -42 -2 55 c-1 46 -3 51 -11 31 -5 -14
-12 -52 -14 -85 -3 -44 -2 -52 4 -31 7 24 8 18 7 -30 0 -33 3 -73 7 -90 7 -29
6 -28 -10 5 -13 27 -18 61 -18 147 0 140 -16 122 -24 -27 l-5 -105 -13 100
-12 100 4 -110 c2 -60 6 -121 9 -135 3 -14 -3 2 -14 35 -12 33 -24 89 -29 125
l-8 65 -2 -70 c0 -38 6 -99 14 -134 9 -35 14 -65 12 -67 -5 -5 -55 170 -61
211 -3 17 -3 -9 -1 -56 5 -104 26 -192 66 -271 36 -72 31 -76 -9 -5 -41 73
-81 187 -92 266 -8 60 -9 57 -4 -34 7 -137 8 -145 16 -145 4 0 5 -6 3 -13 -3
-7 13 -49 34 -95 22 -45 38 -82 36 -82 -2 0 -20 28 -39 63 -53 95 -77 178 -77
266 -1 61 -3 71 -11 51 -13 -33 -4 -150 16 -221 9 -31 32 -82 51 -114 34 -56
200 -283 291 -397 25 -32 43 -58 41 -58 -3 0 -30 30 -60 68 -30 37 -65 78 -78
92 -13 13 -24 27 -24 30 0 3 -27 43 -61 90 -34 47 -74 104 -89 127 -15 24 -31
41 -35 38 -9 -6 -62 74 -85 127 -28 67 -15 54 26 -26 22 -43 43 -76 45 -73 3
3 -11 38 -32 78 -27 54 -38 91 -42 139 -4 51 -7 59 -13 38 -12 -46 -2 -170 19
-226 27 -71 6 -54 -29 24 -18 40 -29 81 -30 111 0 38 -2 43 -9 26 -20 -50 14
-180 72 -268 18 -27 16 -26 -11 5 -37 41 -83 125 -74 134 4 3 1 6 -5 6 -6 0
-9 7 -5 17 4 11 3 14 -5 9 -7 -4 -12 -15 -12 -24 1 -27 37 -100 71 -143 17
-21 28 -39 25 -39 -12 0 -89 112 -107 157 l-20 48 6 -44 c3 -24 12 -56 21 -72
8 -16 12 -34 9 -39 -4 -6 8 -29 26 -53 24 -31 26 -36 8 -20 -28 25 -69 90 -49
78 10 -6 12 -4 7 9 -4 10 -7 21 -7 24 0 4 -5 0 -11 -8 -9 -13 -10 -12 -5 3 3
9 1 17 -5 17 -6 0 -8 4 -5 9 4 5 2 20 -3 33 -6 14 -10 17 -11 8 -4 -27 2 -65
12 -85 6 -14 3 -13 -11 5 -27 32 -27 10 -1 -47 24 -53 18 -56 -9 -5 -11 20
-20 31 -21 24 0 -7 5 -22 10 -32 9 -16 8 -18 -7 -13 -13 5 -15 3 -9 -13 4 -10
9 -40 11 -65 7 -103 75 -205 208 -312 99 -80 290 -213 347 -242 92 -47 553
-525 1371 -1420 154 -168 282 -295 299 -295 6 0 8 12 4 28 -15 70 -100 210
-287 472 -111 157 -238 337 -282 400 -43 63 -110 160 -148 215 -39 55 -122
177 -186 270 -63 94 -157 229 -208 300 -51 72 -115 167 -142 213 -27 46 -52
78 -56 72 -10 -17 -21 -12 -49 24 l-25 34 20 26 c25 32 26 28 -40 215 -76 213
-104 336 -126 546 -10 95 -22 129 -60 163 -41 38 -60 40 -76 10z m-12 -215
c-2 -16 -4 -5 -4 22 0 28 2 40 4 28 2 -13 2 -35 0 -50z m71 -258 c32 -81 35
-93 18 -65 -23 36 -86 235 -86 267 1 16 12 -12 24 -62 13 -49 33 -112 44 -140z
m-221 163 c-3 -8 -6 -5 -6 6 -1 11 2 17 5 13 3 -3 4 -12 1 -19z m-80 -30 c-3
-8 -6 -5 -6 6 -1 11 2 17 5 13 3 -3 4 -12 1 -19z m153 -23 c0 -5 -5 -3 -10 5
-5 8 -10 20 -10 25 0 6 5 3 10 -5 5 -8 10 -19 10 -25z m-96 -104 c29 -65 43
-108 37 -114 -6 -6 -14 -1 -21 13 -8 15 -8 20 -1 16 16 -10 15 -7 -23 75 -32
72 -53 129 -44 119 3 -3 26 -52 52 -109z m43 67 c-3 -8 -6 -5 -6 6 -1 11 2 17
5 13 3 -3 4 -12 1 -19z m143 -292 c7 -9 9 -16 4 -16 -5 0 -1 -5 9 -11 9 -6 15
-14 12 -20 -4 -5 -1 -9 5 -9 6 0 8 -4 5 -10 -3 -5 -1 -10 5 -10 6 0 8 -4 5
-10 -3 -5 -1 -10 5 -10 6 0 8 -4 5 -10 -3 -5 -2 -10 3 -10 4 0 27 -30 50 -67
24 -38 33 -57 21 -43 -11 14 -28 34 -38 45 -34 41 -80 113 -75 118 3 3 -3 10
-14 16 -11 6 -22 8 -25 5 -3 -3 -8 -1 -11 5 -4 6 2 8 13 6 24 -4 21 5 -38 115
-22 41 -40 80 -40 85 0 6 19 -27 43 -72 23 -45 49 -89 56 -97z m110 89 c0 -5
-5 -3 -10 5 -5 8 -10 20 -10 25 0 6 5 3 10 -5 5 -8 10 -19 10 -25z m-243 3 c1
-19 85 -167 143 -250 29 -42 37 -58 20 -38 -79 88 -195 300 -165 300 1 0 2 -6
2 -12z m224 -80 c12 -24 18 -40 14 -36 -5 4 -15 2 -24 -4 -13 -10 -14 -10 -3
2 17 19 15 26 -8 27 -11 1 -20 -4 -20 -10 0 -7 -4 -6 -10 3 -12 18 -14 40 -2
25 7 -10 42 -17 42 -8 0 2 -5 13 -10 24 -6 10 -8 19 -6 19 3 0 15 -19 27 -42z
m-460 15 c13 -16 12 -17 -3 -4 -17 13 -22 21 -14 21 2 0 10 -8 17 -17z m94
-33 c10 -11 16 -20 13 -20 -3 0 -13 9 -23 20 -10 11 -16 20 -13 20 3 0 13 -9
23 -20z m-254 -27 c13 -16 12 -17 -3 -4 -10 7 -18 15 -18 17 0 8 8 3 21 -13z
m653 -14 c3 -3 -5 -5 -19 -5 -13 0 -22 3 -19 7 4 8 30 6 38 -2z m10 -31 c-3
-4 7 -29 22 -55 15 -27 23 -43 17 -38 -6 6 -22 31 -37 56 -20 35 -22 46 -11
46 8 0 12 -4 9 -9z m-24 -14 c0 -8 -19 -13 -24 -6 -3 5 1 9 9 9 8 0 15 -2 15
-3z m-274 -36 l29 -33 -32 29 c-31 28 -38 36 -30 36 2 0 16 -15 33 -32z m281
7 c0 -8 -4 -12 -9 -9 -5 3 -6 10 -3 15 9 13 12 11 12 -6z m139 -36 c14 -28 24
-53 22 -55 -2 -2 -16 21 -31 51 -15 30 -25 55 -22 55 3 0 16 -23 31 -51z
m-264 -119 c17 -25 47 -65 67 -90 20 -24 30 -41 23 -36 -7 4 -30 30 -51 56
-21 27 -41 47 -43 45 -2 -3 -24 17 -49 43 l-44 47 48 -45 c26 -24 47 -40 47
-36 0 5 -32 47 -71 95 -62 75 -64 79 -14 26 30 -33 70 -80 87 -105z m-317 130
c10 -11 16 -20 13 -20 -3 0 -13 9 -23 20 -10 11 -16 20 -13 20 3 0 13 -9 23
-20z m290 -10 c10 -11 16 -20 13 -20 -3 0 -13 9 -23 20 -10 11 -16 20 -13 20
3 0 13 -9 23 -20z m-80 -30 c10 -11 16 -20 13 -20 -3 0 -13 9 -23 20 -10 11
-16 20 -13 20 3 0 13 -9 23 -20z m125 -25 c13 -14 21 -25 18 -25 -2 0 -15 11
-28 25 -13 14 -21 25 -18 25 2 0 15 -11 28 -25z m71 -42 c13 -16 12 -17 -3 -4
-17 13 -22 21 -14 21 2 0 10 -8 17 -17z m-310 -70 c13 -16 12 -17 -3 -4 -17
13 -22 21 -14 21 2 0 10 -8 17 -17z m507 -17 l20 -33 -108 -108 -107 -107 -27
17 c-15 10 -25 22 -24 26 4 13 212 238 220 239 3 0 15 -15 26 -34z m171 -156
c45 -60 115 -165 135 -200 24 -41 -84 93 -193 240 -59 79 -61 83 -44 102 16
18 18 17 36 -29 10 -26 40 -77 66 -113z m-509 23 c0 -7 -114 92 -131 114 -8
10 19 -11 59 -46 39 -34 72 -65 72 -68z m161 100 c13 -16 12 -17 -3 -4 -17 13
-22 21 -14 21 2 0 10 -8 17 -17z m228 -40 c7 -16 60 -99 118 -186 59 -86 104
-159 101 -162 -10 -10 -278 307 -278 329 0 11 30 46 40 46 4 0 12 -12 19 -27z
m37 -222 c38 -35 90 -80 117 -100 l47 -35 -49 -50 -49 -49 -156 138 c-86 76
-156 141 -156 144 0 3 28 34 62 68 l62 63 26 -58 c19 -40 47 -76 96 -121z
m-391 139 c10 -11 16 -20 13 -20 -3 0 -13 9 -23 20 -10 11 -16 20 -13 20 3 0
13 -9 23 -20z m612 -427 c33 -43 99 -122 147 -175 47 -53 86 -100 86 -103 0
-10 -229 187 -289 249 -54 54 -54 55 -37 80 9 14 20 26 25 26 4 0 35 -35 68
-77z"/>
<path d="M893 3820 c-63 -38 -109 -133 -92 -193 13 -48 46 -75 219 -174 203
-118 230 -134 230 -140 0 -2 -37 16 -82 40 -99 54 -248 113 -303 121 -37 5
-36 4 14 -14 127 -46 433 -207 576 -303 77 -52 162 -123 182 -153 14 -22 13
-27 -7 -68 -20 -42 -20 -47 -6 -75 17 -32 38 -40 149 -62 45 -8 72 -21 120
-60 155 -122 386 -289 401 -289 4 0 -62 80 -146 178 -84 97 -189 222 -232 277
-44 55 -116 142 -160 193 -90 105 -695 695 -741 723 -39 24 -82 24 -122 -1z
m870 -800 c78 -81 147 -162 193 -225 27 -37 23 -35 -41 21 -38 34 -81 74 -95
89 -14 15 -52 48 -85 73 -86 65 -125 103 -125 123 0 50 57 20 153 -81z"/>
<path d="M3089 3823 c-11 -12 -14 -61 -14 -213 l0 -198 22 107 c12 58 34 138
48 176 14 39 25 80 25 92 0 45 -54 69 -81 36z"/>
<path d="M1495 3731 c-9 -16 13 -51 34 -51 10 0 39 -27 66 -60 26 -33 50 -60
51 -60 2 0 -21 39 -50 88 -51 84 -83 110 -101 83z"/>
<path d="M2767 3713 c-4 -3 -7 -17 -7 -30 0 -18 5 -23 25 -23 14 0 28 7 31 15
11 27 -30 58 -49 38z"/>
<path d="M1837 3653 c-4 -3 -7 -19 -7 -34 0 -22 6 -30 25 -35 43 -11 73 34 43
64 -13 13 -50 16 -61 5z"/>
<path d="M3915 3478 c-173 -106 -289 -197 -510 -396 -89 -81 -101 -89 -116
-76 -21 19 -35 18 -59 -6 -19 -19 -29 -90 -12 -90 4 0 51 36 105 80 54 43 112
89 130 100 l32 22 -30 -26 c-16 -14 -84 -76 -150 -138 -305 -285 -93 -126 330
248 160 141 344 313 335 313 -3 -1 -27 -15 -55 -31z"/>
<path d="M2030 3458 c0 -19 2 -20 10 -8 13 19 13 30 0 30 -5 0 -10 -10 -10
-22z"/>
<path d="M2775 3470 c-10 -16 16 -43 28 -31 11 11 2 41 -12 41 -5 0 -13 -5
-16 -10z"/>
<path d="M1735 3440 c-8 -14 3 -30 21 -30 8 0 14 9 14 20 0 21 -24 28 -35 10z"/>
<path d="M2830 3440 c-12 -7 -12 -12 -2 -22 9 -9 15 -9 24 0 16 16 -2 34 -22
22z"/>
<path d="M2924 3260 c0 -91 2 -128 3 -82 2 45 2 119 0 165 -1 45 -3 8 -3 -83z"/>
<path d="M3061 3384 c0 -11 3 -14 6 -6 3 7 2 16 -1 19 -3 4 -6 -2 -5 -13z"/>
<path d="M3250 3366 c-6 -8 -10 -25 -8 -38 2 -19 9 -23 38 -23 29 0 36 4 38
23 4 28 -14 52 -38 52 -10 0 -23 -7 -30 -14z"/>
<path d="M4086 3329 c-36 -28 -62 -82 -82 -170 -41 -185 -106 -253 -367 -381
-97 -48 -177 -90 -177 -92 0 -6 15 0 200 82 373 164 507 231 584 290 62 47 74
75 15 35 -58 -40 -293 -168 -344 -188 l-40 -15 35 27 c61 46 260 253 291 301
16 25 29 56 29 69 0 59 -90 85 -144 42z"/>
<path d="M1810 3326 c-27 -33 18 -72 48 -42 13 13 14 20 6 34 -15 23 -38 26
-54 8z"/>
<path d="M2960 3245 c-15 -19 3 -47 26 -38 18 7 18 27 0 42 -10 9 -16 8 -26
-4z"/>
<path d="M1110 2857 c16 -18 438 -182 446 -174 6 5 -106 52 -276 115 -180 68
-176 66 -170 59z"/>
<path d="M3836 2832 c-9 -14 12 -35 28 -29 23 9 20 37 -3 37 -11 0 -22 -4 -25
-8z"/>
<path d="M2056 2823 c-3 -3 -6 -12 -6 -19 0 -13 196 -264 206 -264 3 0 -11 24
-29 53 -154 239 -157 243 -171 230z"/>
<path d="M3770 2796 c-27 -33 18 -72 48 -42 13 13 14 20 6 34 -15 23 -38 26
-54 8z"/>
<path d="M4314 2771 c-63 -25 -322 -101 -447 -132 -26 -6 -46 -14 -43 -16 4
-5 493 98 566 120 34 10 46 18 48 35 3 18 -1 22 -25 21 -15 0 -60 -13 -99 -28z"/>
<path d="M3341 2711 c-15 -27 9 -56 37 -47 24 8 29 35 10 54 -17 17 -36 15
-47 -7z"/>
<path d="M1930 2641 c0 -19 32 -65 65 -93 53 -45 309 -167 322 -154 3 2 -41
28 -97 56 -116 60 -185 109 -236 169 -39 45 -54 51 -54 22z"/>
<path d="M3384 2619 c-3 -6 -1 -16 5 -22 9 -9 14 -8 21 3 9 15 4 30 -10 30 -5
0 -12 -5 -16 -11z"/>
<path d="M3511 2606 c-14 -16 -5 -42 16 -50 8 -4 32 -1 53 5 38 11 38 12 23
35 -18 27 -73 33 -92 10z"/>
<path d="M3750 2610 c-20 -6 -21 -8 -5 -8 11 0 31 4 45 8 20 6 21 8 5 8 -11 0
-31 -4 -45 -8z"/>
<path d="M818 2593 c7 -3 16 -2 19 1 4 3 -2 6 -13 5 -11 0 -14 -3 -6 -6z"/>
<path d="M3698 2593 c7 -3 16 -2 19 1 4 3 -2 6 -13 5 -11 0 -14 -3 -6 -6z"/>
<path d="M868 2583 c6 -2 18 -2 25 0 6 3 1 5 -13 5 -14 0 -19 -2 -12 -5z"/>
<path d="M1703 2580 c-42 -18 -22 -69 36 -92 57 -22 317 -79 379 -84 l67 -5
-107 55 c-208 108 -326 147 -375 126z"/>
<path d="M1045 2549 c190 -39 465 -97 548 -115 37 -9 67 -20 67 -25 0 -5 -118
-10 -282 -10 -326 -2 -324 -3 25 -20 141 -7 256 -14 254 -16 -2 -2 -69 -15
-148 -29 -79 -14 -180 -34 -224 -46 -51 -13 -94 -18 -120 -14 -22 3 -57 9 -77
12 -34 6 -42 2 -73 -29 -44 -44 -46 -78 -5 -119 28 -28 35 -30 85 -26 46 4 63
12 114 52 114 89 288 152 489 176 90 11 223 10 477 -5 l80 -5 -50 15 c-27 8
-133 28 -235 45 -102 17 -300 53 -440 80 -301 58 -594 110 -612 109 -7 -1 50
-14 127 -30z"/>
<path d="M3503 2443 c-7 -2 -13 -16 -13 -29 0 -22 4 -25 28 -22 21 2 27 8 27
28 0 24 -17 34 -42 23z"/>
<path d="M4093 2385 c-16 -7 -46 -27 -65 -44 -54 -47 -110 -64 -193 -57 l-70
5 65 -25 c36 -14 112 -43 169 -65 115 -45 133 -45 183 0 26 23 32 37 36 82 3
43 0 59 -14 77 -26 31 -73 43 -111 27z m-48 -94 c-9 -28 -39 -43 -70 -35 -27
7 -25 24 3 24 9 0 28 9 42 20 29 22 34 20 25 -9z"/>
<path d="M3530 2305 c0 -23 38 -41 145 -69 55 -15 133 -42 173 -62 41 -20 76
-33 80 -29 23 23 -85 88 -237 141 -105 37 -161 43 -161 19z"/>
<path d="M2084 2236 c-100 -34 -268 -106 -261 -113 2 -2 25 6 51 18 26 11 113
45 194 74 163 60 173 73 16 21z"/>
<path d="M1700 2156 c-200 -112 -382 -231 -438 -285 -66 -64 -51 -124 21 -88
18 8 85 60 150 115 66 55 189 153 275 218 185 139 179 134 167 133 -6 0 -84
-42 -175 -93z"/>
<path d="M2166 2204 c-14 -15 -30 -43 -36 -63 -8 -31 -45 -68 -237 -233 -255
-220 -358 -321 -369 -363 -15 -62 45 -105 103 -74 13 7 65 67 116 134 165 216
372 457 465 540 36 33 43 45 38 63 -10 30 -47 28 -80 -4z"/>
<path d="M2295 2184 c-67 -50 -165 -144 -165 -157 0 -5 28 15 62 45 80 69 174
157 168 157 -3 0 -32 -20 -65 -45z"/>
<path d="M2343 2052 c-21 -21 -93 -104 -161 -185 -68 -81 -140 -159 -160 -175
-73 -55 -122 -109 -122 -135 0 -38 10 -57 29 -57 22 0 48 29 96 105 104 166
242 351 334 448 46 48 32 48 -16 -1z"/>
<path d="M2897 1873 c30 -98 65 -209 79 -247 17 -47 21 -73 15 -79 -15 -15
-32 31 -77 201 -20 78 -39 141 -41 139 -8 -8 80 -376 102 -424 13 -28 35 -59
50 -69 36 -23 89 -23 115 1 37 34 27 76 -50 203 -39 64 -109 192 -156 284 -46
92 -86 168 -88 168 -2 0 21 -80 51 -177z"/>
<path d="M2381 2021 c-19 -12 -6 -43 16 -39 10 2 18 12 18 22 0 22 -14 29 -34
17z"/>
<path d="M2698 1980 c-4 -30 -7 -84 -7 -120 l2 -65 9 70 c5 39 7 93 6 120 l-3
50 -7 -55z"/>
<path d="M2502 1928 c-22 -78 -84 -313 -103 -390 -6 -26 -9 -52 -7 -59 2 -7
21 50 41 126 20 76 40 141 45 144 5 3 13 17 17 30 5 18 4 22 -6 16 -8 -6 -11
-4 -7 6 13 32 49 191 45 195 -2 2 -13 -28 -25 -68z"/>
<path d="M2821 1991 c-7 -5 -11 -19 -9 -32 4 -31 42 -33 46 -3 4 25 -19 46
-37 35z"/>
<path d="M2581 1868 c-13 -68 -43 -203 -67 -301 -48 -193 -52 -228 -29 -247
38 -31 70 18 89 136 l15 89 -5 -120 c-6 -138 -24 -303 -58 -527 -13 -86 -21
-169 -18 -183 6 -35 36 -50 56 -30 38 39 41 82 38 637 l-3 537 23 3 c31 4 37
50 10 70 -11 7 -22 24 -24 36 -1 12 -14 -33 -27 -100z"/>
<path d="M2748 1910 c2 -17 8 -33 14 -36 5 -3 6 6 2 23 -9 40 -22 50 -16 13z"/>
<path d="M2203 1833 c-33 -43 -82 -111 -108 -152 -50 -78 -150 -280 -142 -288
8 -8 80 104 149 232 36 66 85 152 109 190 59 91 61 95 56 95 -3 0 -31 -35 -64
-77z"/>
<path d="M2336 1895 c-20 -20 -5 -55 23 -55 28 0 47 28 34 48 -14 23 -38 26
-57 7z"/>
<path d="M3086 1871 c-3 -5 3 -20 13 -32 15 -18 22 -21 31 -13 9 9 9 17 1 33
-12 22 -36 28 -45 12z"/>
<path d="M2436 1854 c-9 -24 -7 -28 9 -14 17 14 20 30 6 30 -5 0 -12 -7 -15
-16z"/>
<path d="M2744 1766 c-11 -29 0 -51 26 -51 21 0 25 5 25 30 0 24 -5 31 -23 33
-13 2 -24 -3 -28 -12z"/>
<path d="M1860 1348 c-49 -68 -111 -150 -137 -183 -179 -228 -205 -275 -148
-275 19 0 36 15 70 62 54 73 129 192 215 344 35 60 71 124 82 142 41 68 4 27
-82 -90z"/>
<path d="M2381 1444 c0 -11 3 -14 6 -6 3 7 2 16 -1 19 -3 4 -6 -2 -5 -13z"/>
<path d="M2405 621 c-28 -6 -27 -7 19 -14 62 -9 219 -9 282 0 42 6 45 8 24 14
-32 9 -285 9 -325 0z"/>
</g>
</svg>