<?xml version="1.0" standalone="no"?>
<!DOCTYPE svg PUBLIC "-//W3C//DTD SVG 20010904//EN"
 "http://www.w3.org/TR/2001/REC-SVG-20010904/DTD/svg10.dtd">
<svg version="1.0" xmlns="http://www.w3.org/2000/svg"
 width="512.000000pt" height="512.000000pt" viewBox="0 0 512.000000 512.000000"
 preserveAspectRatio="xMidYMid meet">
<metadata>
Created by potrace 1.16, written by Peter Selinger 2001-2019
</metadata>
<g transform="translate(0.000000,512.000000) scale(0.100000,-0.100000)"
fill="#000000" stroke="none">
<path d="M1019 4694 c-17 -21 0 -49 31 -49 31 0 48 28 31 49 -8 9 -21 16 -31
16 -10 0 -23 -7 -31 -16z"/>
<path d="M1266 4594 c-19 -18 -21 -55 -4 -72 7 -7 24 -12 38 -12 33 0 50 17
50 50 0 14 -5 31 -12 38 -17 17 -54 15 -72 -4z"/>
<path d="M1840 4553 c-36 -46 -8 -103 50 -103 55 0 80 70 40 110 -28 28 -64
25 -90 -7z m74 4 c38 -27 -2 -95 -41 -71 -25 16 -29 55 -7 71 10 7 21 13 24
13 3 0 14 -6 24 -13z"/>
<path d="M1100 4419 c0 -18 2 -19 15 -9 15 12 12 30 -6 30 -5 0 -9 -10 -9 -21z"/>
<path d="M1233 4384 c-3 -8 -1 -20 6 -27 14 -14 47 15 37 32 -10 16 -36 13
-43 -5z"/>
<path d="M2060 4373 c-129 -13 -240 -29 -248 -35 -15 -13 -101 -180 -134 -261
-11 -29 -42 -115 -69 -192 l-48 -140 -43 -13 c-52 -15 -68 -34 -68 -82 0 -46
33 -98 144 -223 l87 -98 -24 -62 c-14 -34 -28 -78 -32 -97 -11 -51 -12 -52
-55 -30 -78 40 -93 19 -30 -41 l40 -38 -43 -3 -42 -3 48 -25 c47 -24 47 -24
47 -74 0 -76 18 -126 59 -167 51 -52 72 -56 424 -84 65 -6 78 -10 75 -23 -3
-17 -93 -35 -443 -87 -112 -17 -122 -20 -150 -50 -16 -18 -50 -45 -75 -60 -73
-44 -100 -75 -142 -160 l-39 -80 3 -246 3 -246 50 -63 c56 -72 63 -102 64
-261 l1 -97 -150 -23 c-90 -13 -150 -27 -150 -34 0 -6 41 -31 92 -55 50 -25
97 -51 105 -58 9 -9 13 -41 13 -103 l0 -90 63 -28 c38 -18 56 -31 47 -34 -8
-3 -124 -29 -257 -58 -180 -38 -243 -56 -243 -66 0 -23 392 -203 668 -308
l122 -46 98 25 c53 14 146 41 205 60 l108 34 62 -23 c34 -12 139 -54 232 -93
94 -38 180 -73 191 -76 14 -4 77 13 179 49 137 49 161 55 188 46 78 -28 99
-20 842 304 198 86 370 163 383 171 25 16 21 34 -7 34 -14 0 -17 6 -14 23 4
18 30 33 135 77 182 77 209 91 232 123 20 27 21 43 24 369 l3 341 29 37 c45
57 50 80 50 243 0 107 5 164 15 192 17 48 18 158 2 200 -22 56 -50 92 -90 119
-34 21 -53 26 -107 26 l-67 0 -19 42 c-27 60 -69 115 -101 132 -16 7 -59 17
-96 21 -65 7 -69 9 -86 44 -23 44 -67 86 -103 100 -22 8 -28 18 -33 58 -14
105 -59 199 -131 274 l-35 36 26 119 c39 182 84 342 117 412 29 61 29 64 12
83 -17 19 -16 21 24 62 64 66 57 109 -24 150 -21 11 -33 26 -37 46 -4 17 -16
40 -27 51 -24 24 -36 25 -350 5 -129 -7 -325 -19 -435 -25 -110 -7 -210 -14
-223 -16 -55 -11 -156 -135 -218 -269 -35 -76 -78 -228 -90 -315 -7 -53 -24
-79 -24 -37 0 52 -20 57 -223 57 l-187 0 0 36 c0 77 70 300 141 453 51 109 57
132 37 148 -26 20 -47 19 -278 -4z m230 -50 c0 -5 -12 -28 -26 -53 -87 -150
-179 -358 -198 -451 -4 -21 -16 -28 -63 -43 -32 -10 -73 -26 -91 -37 -23 -13
-52 -19 -98 -19 l-64 0 0 56 0 56 -55 -7 c-47 -5 -55 -4 -55 10 0 24 107 290
151 376 l39 75 218 21 c119 11 223 21 230 22 6 0 12 -2 12 -6z m1541 -48 c-63
-73 -105 -179 -171 -440 -26 -104 -54 -223 -61 -262 -12 -66 -16 -73 -37 -73
-17 0 -22 4 -18 18 3 9 19 82 36 162 17 80 40 176 51 214 34 123 12 81 -41
-81 -66 -197 -106 -280 -161 -327 -36 -30 -48 -35 -78 -31 -20 3 -164 14 -321
25 -373 27 -347 21 -372 77 -61 138 53 513 201 661 29 28 36 30 138 36 59 4
203 13 318 22 313 22 445 31 499 33 l48 1 -31 -35z m119 -61 c0 -2 -19 -4 -42
-4 -40 0 -41 0 -23 20 16 18 19 18 41 3 13 -8 24 -17 24 -19z m-30 -203 c8
-15 3 -38 -20 -101 -17 -45 -51 -166 -76 -268 -25 -103 -47 -188 -49 -190 -1
-1 -24 9 -50 23 -26 14 -56 25 -66 25 -15 0 -17 6 -13 33 14 74 56 260 85 369
l31 117 67 4 c36 2 69 4 73 5 4 1 12 -7 18 -17z m-1454 -320 c-3 -4 -39 -11
-80 -14 -40 -3 -87 -12 -104 -21 -30 -16 -82 -70 -82 -87 0 -12 -77 -12 -85 1
-9 15 66 91 110 111 30 14 65 19 143 19 57 0 101 -4 98 -9z m-64 -94 l-17 -47
-77 0 c-42 0 -79 4 -82 8 -3 5 10 24 29 42 29 28 44 34 97 39 35 4 64 6 65 6
1 0 -6 -22 -15 -48z m-31 -87 c184 -16 467 -41 629 -55 311 -27 410 -42 288
-44 -72 -1 -499 29 -838 59 -118 10 -258 22 -310 25 -67 5 -99 12 -107 22 -23
29 -93 -7 -93 -48 0 -12 -7 -19 -20 -19 -27 0 -26 37 2 67 28 30 37 30 449 -7z
m-475 0 c-3 -11 -9 -29 -12 -40 -4 -17 -14 -20 -55 -20 -57 0 -61 10 -20 51
36 36 96 42 87 9z m1709 -48 c-6 -4 -27 -21 -48 -36 -42 -31 -83 -104 -93
-166 -5 -30 -9 -38 -15 -27 -5 9 -32 17 -69 21 -68 8 -72 15 -41 82 23 51 77
104 123 120 37 14 157 19 143 6z m-1015 -47 c184 -14 424 -31 532 -38 161 -10
196 -14 189 -25 -7 -12 -47 -11 -247 2 -341 23 -867 66 -882 71 -28 10 1 26
37 21 20 -3 187 -17 371 -31z m1146 -3 c107 -70 183 -184 192 -289 l5 -55 -58
33 c-64 36 -112 41 -232 25 l-63 -9 0 44 c0 68 19 120 56 157 30 30 39 34 72
28 l37 -5 -30 13 c-71 33 -140 -39 -164 -169 -6 -32 -11 -60 -11 -62 0 -3 -30
-1 -67 2 -88 8 -119 -10 -161 -94 -63 -125 -67 -252 -12 -369 34 -74 13 -67
-25 8 -53 104 -52 243 1 357 26 54 118 144 163 158 14 4 24 21 31 48 24 91 34
112 84 164 66 68 96 70 182 15z m-1920 -32 c-58 -62 -83 -116 -106 -232 -11
-50 -20 -91 -22 -93 -8 -7 -48 16 -48 27 0 29 42 163 65 209 29 57 80 118 109
129 46 19 46 8 2 -40z m509 -70 c100 -12 648 -59 773 -67 81 -5 95 -4 114 13
12 10 -1 -8 -29 -40 -51 -57 -83 -125 -83 -173 0 -18 -6 -23 -24 -23 -25 0
-25 9 -2 90 7 23 6 23 -13 -5 -12 -16 -30 -60 -42 -97 -11 -38 -23 -68 -27
-68 -9 0 -833 89 -889 96 -39 5 -43 8 -43 33 0 68 70 209 123 246 12 9 31 13
42 10 11 -4 56 -10 100 -15z m-373 -20 c-42 -30 -84 -92 -97 -145 -6 -21 -9
-25 -12 -13 -8 34 43 125 88 157 23 17 47 31 52 31 6 0 -8 -13 -31 -30z m103
-107 c-3 -10 -11 -38 -17 -63 -6 -25 -12 -50 -14 -56 -1 -8 -19 -10 -51 -7
-26 3 -49 7 -51 8 -2 2 7 26 19 54 25 59 50 81 92 81 24 0 28 -3 22 -17z
m1195 2 c0 -2 -10 -20 -22 -38 -13 -19 -31 -49 -40 -66 -19 -34 -33 -39 -42
-15 -13 34 52 124 90 124 8 0 14 -2 14 -5z m58 -57 c-23 -19 -88 -108 -100
-138 -6 -14 -19 -56 -29 -95 -18 -66 -18 -67 -14 -20 9 90 44 174 91 222 24
23 49 43 56 43 7 0 6 -5 -4 -12z m515 -44 c18 -9 44 -27 59 -39 14 -12 45 -25
68 -29 64 -10 96 -31 126 -83 23 -37 28 -61 32 -127 3 -73 1 -86 -25 -136 -39
-76 -69 -93 -213 -120 -113 -21 -124 -21 -158 -7 -21 9 -88 20 -151 26 -143
13 -174 31 -219 121 -39 77 -48 135 -32 213 12 60 41 130 59 141 5 3 59 -2
121 -11 72 -11 116 -14 124 -7 7 5 32 24 56 42 49 37 101 42 153 16z m-2060
-75 c-5 -16 -12 -30 -18 -32 -15 -3 -18 59 -4 85 l12 22 9 -23 c4 -13 5 -36 1
-52z m-39 -183 c31 -41 23 -46 -24 -13 -46 30 -68 72 -72 137 -3 54 -3 55 25
55 20 -1 27 4 29 20 0 11 4 -21 8 -72 6 -78 11 -97 34 -127z m512 155 c486
-50 764 -85 764 -97 0 -9 -11 -11 -32 -8 -82 11 -737 84 -853 95 -71 6 -134
15 -139 20 -15 14 51 11 260 -10z m910 -18 c-3 -16 -9 -52 -13 -82 -4 -38 -9
-49 -15 -37 -11 19 10 146 24 146 6 0 8 -11 4 -27z m-62 -30 c-9 -36 -9 -36
-32 -24 -28 15 -18 51 14 51 21 0 24 -3 18 -27z m-846 -18 c136 -14 362 -39
502 -55 140 -17 260 -30 266 -30 6 0 14 -23 17 -52 4 -28 15 -68 25 -90 l19
-38 -31 0 c-17 0 -224 25 -460 55 -235 30 -459 58 -498 62 -86 8 -107 23 -119
88 -10 55 -4 85 17 85 8 0 126 -11 262 -25z m2043 -71 c35 -17 69 -75 131
-219 l48 -110 0 -207 c0 -113 -3 -213 -6 -222 -3 -9 -16 -16 -28 -16 -33 0
-46 -19 -46 -65 l0 -41 -83 -27 c-46 -15 -86 -27 -90 -27 -3 0 -8 134 -11 298
-2 163 -7 321 -11 350 -6 47 -11 55 -35 63 l-28 10 15 47 c7 26 15 80 16 120
l2 74 49 -7 c27 -3 62 -13 77 -21z m-1177 -83 c3 -21 21 -68 39 -105 l34 -67
-29 28 c-41 39 -68 95 -75 156 -6 46 -5 51 9 39 9 -7 18 -30 22 -51z m1422
-107 c17 -8 42 -27 55 -42 13 -15 17 -21 9 -14 -17 15 -64 16 -90 2 -17 -9
-22 -5 -40 29 -11 22 -20 43 -20 47 0 8 47 -4 86 -22z m-2381 -33 c-6 -5 -98
-23 -205 -41 -107 -18 -206 -38 -220 -45 -31 -15 -129 -39 -136 -33 -11 11 10
39 35 45 25 6 490 80 521 82 8 1 10 -2 5 -8z m1992 -56 c3 -9 3 -18 0 -21 -6
-6 -846 -184 -871 -184 -37 0 -197 33 -189 40 4 3 77 21 160 40 l153 33 97
-17 98 -16 233 49 c163 35 240 56 259 71 31 24 51 26 60 5z m23 -84 c0 -16
-11 -22 -57 -31 -32 -7 -164 -36 -293 -66 -377 -86 -545 -122 -552 -118 -3 2
-3 16 1 32 7 27 11 28 257 80 644 137 644 137 644 103z m-2150 -50 c146 -28
428 -85 627 -127 325 -70 364 -76 392 -64 17 7 31 15 31 19 0 4 -38 15 -85 25
-47 10 -85 22 -85 26 0 4 32 20 70 35 64 26 74 27 123 17 28 -6 78 -16 109
-22 l57 -11 1 -47 c1 -26 2 -157 3 -292 2 -271 7 -247 -72 -364 l-46 -68 -3
-508 -3 -507 -42 -17 c-24 -9 -48 -16 -55 -16 -9 0 -12 85 -12 364 l0 364 -45
58 c-25 33 -61 82 -81 111 l-36 51 -1 254 -2 253 31 66 c35 73 63 99 161 148
66 33 81 47 66 62 -14 14 -143 -54 -201 -106 -51 -46 -92 -125 -107 -209 -4
-21 -13 -40 -20 -42 -17 -7 -1435 345 -1435 356 0 16 44 107 66 137 21 28 27
31 52 23 15 -6 191 -43 392 -84 201 -41 489 -102 640 -134 345 -74 340 -73
340 -63 0 13 -404 103 -1040 231 -168 33 -313 63 -323 66 -16 5 -14 9 16 29
34 24 40 25 212 33 22 1 159 -20 305 -47z m2144 -723 c-4 -398 -9 -726 -13
-729 -3 -3 -78 -37 -166 -74 -88 -38 -299 -129 -470 -203 -170 -73 -316 -136
-322 -139 -10 -4 -13 99 -13 494 l0 500 35 45 c80 106 80 105 83 384 l3 251
122 27 c67 14 257 57 422 95 165 38 306 70 312 70 10 1 12 -147 7 -721z m476
458 c0 -140 -5 -159 -56 -222 -34 -41 -43 -46 -178 -88 -209 -66 -196 -65
-196 -24 l0 35 112 34 c109 33 113 36 185 105 l73 71 0 94 c0 88 2 95 23 105
12 7 25 12 30 13 4 0 7 -55 7 -123z m-110 15 c0 -38 -3 -76 -6 -85 -14 -35
-19 -12 -16 69 4 102 22 115 22 16z m-2430 -166 c300 -75 581 -144 625 -153
44 -9 83 -21 87 -27 9 -12 10 -305 2 -357 -4 -24 -12 -38 -21 -38 -8 0 -135
34 -283 75 -259 72 -974 259 -1092 285 l-58 13 0 192 0 192 98 -23 c53 -13
342 -85 642 -159z m2450 -461 c0 -287 -3 -334 -25 -361 -1 -2 -72 -32 -158
-67 l-157 -65 0 349 0 348 163 55 c89 31 165 56 170 56 4 1 7 -141 7 -315z
m-2993 134 c13 -22 22 -42 20 -44 -2 -3 -35 3 -71 12 -57 14 -72 23 -101 59
-19 23 -35 44 -35 47 0 3 36 -3 81 -15 74 -18 82 -23 106 -59z m-41 -139 c57
-15 64 -31 64 -154 0 -128 0 -127 -63 -106 l-52 18 -3 126 c-1 70 0 127 3 127
4 0 26 -5 51 -11z m649 -9 c13 -5 14 -9 5 -9 -8 0 -24 4 -35 9 -13 5 -14 9 -5
9 8 0 24 -4 35 -9z m225 -65 c174 -53 208 -65 182 -65 -13 0 -325 93 -362 109
-60 24 8 7 180 -44z m-763 -122 c-2 -32 -3 -6 -3 57 0 63 1 89 3 58 2 -32 2
-84 0 -115z m392 103 c4 -8 -84 -131 -143 -200 l-34 -40 -42 14 c-22 7 -43 17
-46 22 -5 8 52 97 122 189 l43 56 48 -16 c26 -9 50 -20 52 -25z m232 -57 c96
-28 180 -52 188 -55 10 -3 6 -14 -15 -42 -15 -20 -31 -39 -34 -42 -3 -3 -28
-35 -54 -72 -26 -37 -52 -70 -56 -73 -8 -5 -358 91 -368 100 -2 2 10 22 27 46
16 24 50 77 75 117 25 39 50 72 55 72 4 0 87 -23 182 -51z m494 -38 c95 -29
112 -40 153 -100 74 -106 72 -95 72 -354 l0 -235 -27 -10 c-145 -57 -249 -92
-267 -90 -21 3 -21 8 -24 223 -4 293 7 585 22 585 6 0 38 -9 71 -19z m-231
-63 c-4 -7 -22 -31 -39 -53 -18 -22 -65 -88 -104 -147 -75 -111 -89 -121 -127
-93 -28 21 -85 18 -162 -9 -51 -17 -72 -21 -89 -13 -13 6 -23 13 -23 17 0 9
187 60 218 60 12 0 37 -8 57 -17 19 -9 36 -15 38 -12 2 2 23 33 47 69 95 143
150 210 171 210 13 0 18 -4 13 -12z m-1028 -40 c49 -17 93 -35 98 -39 4 -4
-10 -17 -33 -28 -22 -12 -41 -23 -41 -25 0 -2 33 -14 73 -26 39 -12 88 -31
107 -42 19 -10 26 -16 15 -13 -11 4 -60 18 -110 31 -193 54 -407 134 -375 141
12 3 149 28 171 32 4 1 47 -13 95 -31z m223 -74 c29 -8 60 -13 68 -10 9 4 11
2 7 -6 -5 -7 1 -9 18 -5 16 4 73 -8 158 -33 74 -22 141 -41 149 -41 9 -1 -18
-7 -59 -14 -41 -6 -109 -18 -150 -25 -64 -11 -82 -11 -125 2 l-50 15 40 11
c22 7 58 12 80 12 22 0 47 5 55 10 13 8 12 10 -4 10 -20 0 -221 66 -246 81
-23 13 1 11 59 -7z m-227 -82 c46 -16 121 -41 168 -56 47 -15 111 -39 143 -53
48 -21 62 -24 82 -15 20 9 33 7 67 -8 24 -11 59 -20 78 -20 19 0 107 -25 195
-56 260 -90 349 -121 368 -129 14 -6 17 -20 17 -76 0 -39 -4 -69 -10 -69 -5 0
-65 22 -132 49 -68 27 -251 99 -408 159 -276 108 -286 111 -328 100 -36 -9
-51 -7 -95 10 -30 11 -64 18 -78 16 -13 -3 -55 6 -94 19 l-70 24 -3 66 c-2 39
1 67 7 67 5 0 47 -13 93 -28z m86 -231 c9 -5 -42 -23 -140 -50 -158 -43 -155
-45 18 -15 l101 18 102 -39 102 -38 -108 -28 c-59 -16 -133 -37 -163 -48 -45
-16 -50 -20 -26 -20 35 -1 266 46 321 65 35 12 46 12 87 -3 l48 -17 -83 -23
c-87 -26 -227 -79 -240 -92 -5 -5 45 5 110 20 65 16 152 37 193 46 l76 16 72
-27 c40 -16 72 -29 70 -31 -2 -1 -90 -37 -196 -79 l-192 -76 -80 40 c-44 22
-160 76 -257 119 -98 44 -222 99 -276 124 l-98 45 73 16 c67 16 340 70 398 79
45 7 75 7 88 -2z m1412 -306 c0 -39 -1 -40 -47 -23 -41 15 -42 24 0 42 46 20
47 20 47 -19z"/>
<path d="M3710 3053 c-125 -64 -156 -317 -53 -425 115 -120 277 26 260 233 -7
79 -34 138 -79 172 -46 35 -86 41 -128 20z m117 -59 c38 -43 58 -116 50 -189
-15 -144 -121 -223 -197 -147 -83 83 -57 315 40 364 43 22 67 16 107 -28z"/>
<path d="M1700 2450 c-8 -5 -12 -11 -10 -13 3 -3 86 -21 185 -42 635 -131 868
-184 891 -206 12 -11 38 -24 58 -30 33 -9 43 -7 82 16 25 15 43 29 41 32 -9 8
-588 130 -897 188 -162 31 -304 58 -315 60 -11 2 -27 0 -35 -5z"/>
<path d="M2973 2069 c-37 -14 -74 -103 -46 -113 26 -11 32 -7 51 38 11 24 25
47 31 50 29 18 -1 38 -36 25z"/>
<path d="M1982 890 c24 -15 210 -81 215 -77 4 4 -162 69 -207 81 -21 6 -22 5
-8 -4z"/>
<path d="M732 4328 c-31 -31 0 -98 46 -98 22 0 52 34 52 61 0 38 -70 65 -98
37z m63 -18 c3 -5 -1 -10 -10 -10 -9 0 -13 5 -10 10 3 6 8 10 10 10 2 0 7 -4
10 -10z"/>
<path d="M1087 4303 c-4 -3 -7 -15 -7 -25 0 -28 34 -19 38 10 3 21 -16 31 -31
15z"/>
<path d="M1361 4246 c-17 -21 -6 -63 19 -71 34 -11 62 12 58 48 -3 28 -7 32
-34 35 -19 2 -36 -3 -43 -12z"/>
<path d="M1580 4250 c0 -5 5 -10 10 -10 6 0 10 5 10 10 0 6 -4 10 -10 10 -5 0
-10 -4 -10 -10z"/>
<path d="M1044 4220 c-26 -10 -48 -62 -40 -95 24 -96 156 -80 156 19 0 64 -55
101 -116 76z m74 -16 c24 -17 30 -62 10 -82 -29 -29 -98 -1 -98 40 0 21 34 58
53 58 7 0 23 -7 35 -16z"/>
<path d="M615 4150 c10 -11 20 -20 23 -20 3 0 -3 9 -13 20 -10 11 -20 20 -23
20 -3 0 3 -9 13 -20z"/>
<path d="M1585 4150 c-3 -5 -1 -10 4 -10 6 0 11 5 11 10 0 6 -2 10 -4 10 -3 0
-8 -4 -11 -10z"/>
<path d="M860 4130 c-11 -11 -20 -23 -20 -28 0 -18 33 -52 50 -52 24 0 50 26
50 50 0 22 -26 50 -46 50 -8 0 -23 -9 -34 -20z"/>
<path d="M640 4117 c0 -2 15 -16 33 -33 l32 -29 -29 33 c-28 30 -36 37 -36 29z"/>
<path d="M1553 4104 c-8 -21 13 -42 28 -27 13 13 5 43 -11 43 -6 0 -13 -7 -17
-16z"/>
<path d="M1000 4044 c0 -8 5 -12 10 -9 6 4 8 11 5 16 -9 14 -15 11 -15 -7z"/>
<path d="M770 3970 c41 -47 101 -115 133 -152 61 -71 77 -81 77 -48 0 18 -32
45 -42 34 -3 -2 -51 47 -106 109 -56 63 -109 120 -119 128 -10 8 16 -24 57
-71z"/>
<path d="M1278 4005 c-9 -19 -8 -29 6 -50 22 -33 60 -33 82 0 15 23 15 27 0
50 -23 35 -72 35 -88 0z"/>
<path d="M1470 3981 c0 -26 17 -36 35 -21 18 15 8 40 -16 40 -12 0 -19 -7 -19
-19z"/>
<path d="M1162 3984 c3 -5 48 -79 100 -164 52 -85 127 -210 167 -277 39 -67
81 -132 92 -145 l21 -23 -20 35 c-141 248 -335 565 -355 577 -5 3 -8 2 -5 -3z"/>
<path d="M1017 3922 c-31 -35 -20 -59 81 -169 152 -167 190 -205 118 -119 -36
44 -66 86 -66 95 0 9 3 11 8 6 5 -6 47 -53 93 -105 46 -52 115 -134 153 -182
38 -49 71 -88 72 -88 2 0 -36 60 -84 133 -48 72 -121 188 -162 255 -41 68 -90
139 -108 158 -38 39 -79 45 -105 16z"/>
<path d="M1390 3910 c0 -5 5 -10 10 -10 6 0 10 -4 10 -10 0 -5 -7 -10 -15 -10
-20 0 -19 -29 1 -37 8 -3 23 1 32 10 13 13 13 21 4 42 -11 24 -42 35 -42 15z"/>
<path d="M622 3841 c-8 -4 -12 -19 -10 -32 2 -18 9 -24 28 -24 28 0 39 27 20
50 -14 17 -20 18 -38 6z"/>
<path d="M790 3832 c0 -7 50 -70 110 -138 61 -69 110 -134 110 -144 0 -24 278
-244 434 -344 43 -27 82 -36 101 -23 14 11 10 18 -29 56 -36 35 -48 42 -59 33
-11 -9 -47 15 -178 119 -189 150 -188 150 -171 156 19 7 14 61 -8 83 -22 22
-74 27 -86 9 -4 -7 -50 32 -115 97 -60 60 -109 103 -109 96z"/>
<path d="M1505 3820 c3 -5 8 -10 11 -10 2 0 4 5 4 10 0 6 -5 10 -11 10 -5 0
-7 -4 -4 -10z"/>
<path d="M680 3703 c-56 -22 -83 -89 -56 -142 25 -46 58 -64 111 -59 26 3 52
1 62 -6 29 -19 145 -67 150 -62 3 3 -31 22 -75 42 l-80 38 19 35 c22 41 23 58
6 88 -27 47 -97 82 -137 66z m93 -51 c37 -32 8 -102 -43 -102 -70 0 -92 95
-27 119 25 9 44 5 70 -17z"/>
<path d="M877 3595 c51 -63 273 -252 273 -232 0 4 -241 222 -279 252 -22 17
-21 14 6 -20z"/>
<path d="M1300 3471 c0 -5 6 -14 14 -20 10 -9 15 -8 19 3 3 8 3 17 0 20 -9 9
-33 7 -33 -3z"/>
<path d="M628 3343 c7 -3 16 -2 19 1 4 3 -2 6 -13 5 -11 0 -14 -3 -6 -6z"/>
<path d="M720 3319 c36 -11 128 -40 206 -64 252 -79 492 -130 289 -61 -55 19
-131 48 -168 65 -38 17 -73 29 -78 25 -5 -3 -59 6 -121 20 -159 35 -211 41
-128 15z"/>
<path d="M1540 3310 c0 -23 5 -31 24 -36 31 -7 46 1 46 26 0 20 -27 40 -54 40
-11 0 -16 -9 -16 -30z"/>
<path d="M740 3160 c0 -5 5 -10 10 -10 6 0 10 5 10 10 0 6 -4 10 -10 10 -5 0
-10 -4 -10 -10z"/>
<path d="M985 3061 c22 -5 132 -11 245 -14 136 -4 190 -2 160 4 -25 5 -135 11
-245 14 -121 2 -184 1 -160 -4z"/>
<path d="M996 3013 c-11 -11 -6 -23 9 -23 8 0 15 4 15 9 0 13 -16 22 -24 14z"/>
<path d="M1250 2931 c-174 -37 -281 -63 -276 -69 5 -4 498 87 505 94 14 13
-113 -1 -229 -25z"/>
<path d="M1476 2831 c-4 -5 -2 -12 3 -15 5 -4 12 -2 15 3 4 5 2 12 -3 15 -5 4
-12 2 -15 -3z"/>
<path d="M1224 2809 c-9 -15 11 -33 30 -26 9 4 13 13 10 22 -7 17 -30 20 -40
4z"/>
<path d="M1310 2750 c0 -5 5 -10 10 -10 6 0 10 5 10 10 0 6 -4 10 -10 10 -5 0
-10 -4 -10 -10z"/>
<path d="M1520 2740 c0 -5 5 -10 10 -10 6 0 10 5 10 10 0 6 -4 10 -10 10 -5 0
-10 -4 -10 -10z"/>
</g>
</svg>