<?xml version="1.0" encoding="UTF-8" standalone="no"?>
<svg 
  version="1.1" 
  xmlns="http://www.w3.org/2000/svg" 
  xmlns:xlink="http://www.w3.org/1999/xlink" 
  xmlns:svg="http://www.w3.org/2000/svg"
  xmlns:rdf="http://www.w3.org/1999/02/22-rdf-syntax-ns#"
  xmlns:cc="http://creativecommons.org/ns#"
  xmlns:dc="http://purl.org/dc/elements/1.1/"
  viewBox="0 0 512 512"
  width="512"
  height="512"
>
<style>svg {background-color: white; }</style>"
<metadata id="metadata1">
Created by https://svgstud.io and licensed under CC-BY-SA 4.0 license. Please attribute https://svgstud.io
</metadata>
<metadata id="prompt">
An IDE code editor (like visual studio pro) being used on a laptop computer
</metadata>
<metadata id="version">
7
</metadata>
<metadata id="metadata2">
<rdf:RDF>
<cc:Work
    rdf:about="">
    <cc:license
    rdf:resource="http://creativecommons.org/licenses/by-sa/4.0/" />
    <dc:creator>
        <cc:Agent>
            <dc:title>https://svgstud.io</dc:title>
        </cc:Agent>
    </dc:creator>
</cc:Work>
<cc:License
    rdf:about="http://creativecommons.org/licenses/by-sa/4.0/">
    <cc:permits
    rdf:resource="http://creativecommons.org/ns#Reproduction" />
    <cc:permits
    rdf:resource="http://creativecommons.org/ns#Distribution" />
    <cc:requires
    rdf:resource="http://creativecommons.org/ns#Notice" />
    <cc:requires
    rdf:resource="http://creativecommons.org/ns#Attribution" />
    <cc:permits
    rdf:resource="http://creativecommons.org/ns#DerivativeWorks" />
    <cc:requires
    rdf:resource="http://creativecommons.org/ns#ShareAlike" />
</cc:License>
</rdf:RDF>
</metadata>
<metadata id="uid">
7d71de23bff10764091c5835f6519cee31204561491b2ded87cdf19cfc5ab3c5
</metadata>
<path stroke="none" fill="black" fill-rule="evenodd" d="M235.50,452.25C231.10,452.52 224.65,452.38 221.16,451.92C217.67,451.47 212.50,450.34 209.66,449.41C206.82,448.48 202.43,446.69 199.91,445.43C197.38,444.16 187.93,438.20 178.91,432.17C169.88,426.14 160.03,419.49 157.00,417.39C153.97,415.28 143.85,408.19 134.50,401.63C125.15,395.07 113.24,386.54 108.04,382.67C102.84,378.81 95.57,372.61 91.89,368.89C86.93,363.88 84.63,360.62 83.03,356.34C81.84,353.17 79.80,344.25 78.50,336.53C77.20,328.82 74.97,313.73 73.54,303.00C72.11,292.27 70.71,282.15 70.44,280.50C70.17,278.85 69.08,269.83 68.01,260.47C66.95,251.10 65.37,237.82 64.50,230.97C63.63,224.11 61.38,207.70 59.50,194.50C57.61,181.30 54.65,160.38 52.91,148.00C51.17,135.62 49.76,121.89 49.77,117.47C49.78,112.62 50.38,108.02 51.30,105.83C52.13,103.85 54.51,100.34 56.59,98.03C58.67,95.73 62.44,92.80 64.97,91.52C67.50,90.23 72.25,88.69 75.53,88.09C78.81,87.48 95.67,86.08 113.00,84.96C130.32,83.85 155.97,82.06 170.00,80.99C184.03,79.91 214.85,77.67 238.50,76.00C262.15,74.34 289.38,72.32 299.00,71.52C308.62,70.72 326.78,69.33 339.35,68.43C351.92,67.53 365.65,66.97 369.85,67.17C375.43,67.44 378.81,68.21 382.33,69.99C384.99,71.33 388.75,74.19 390.69,76.34C392.64,78.50 395.16,82.34 396.31,84.88C398.08,88.78 398.37,91.24 398.22,100.72C398.13,106.89 397.36,123.64 396.52,137.93C395.69,152.23 394.33,174.18 393.52,186.71C392.70,199.25 391.35,220.98 390.52,235.00C389.69,249.03 388.56,262.04 388.02,263.92C387.48,265.80 385.91,269.05 384.52,271.15C383.13,273.24 382.00,275.19 382.00,275.48C382.00,275.77 383.11,276.00 384.46,276.00C385.81,276.00 391.10,277.52 396.21,279.37C401.32,281.22 418.14,288.60 433.59,295.78C449.04,302.95 466.18,311.08 471.68,313.84C477.18,316.60 483.12,320.07 484.88,321.55C486.64,323.04 488.97,325.98 490.04,328.09C491.39,330.73 492.00,333.94 492.00,338.42C492.00,342.47 491.25,346.94 490.01,350.25C488.89,353.24 486.36,357.19 484.26,359.24C482.19,361.25 477.80,364.10 474.50,365.56C471.20,367.03 461.30,371.06 452.50,374.53C443.70,377.99 419.18,387.58 398.00,395.82C376.82,404.07 345.55,416.08 328.50,422.52C311.45,428.95 290.42,436.88 281.78,440.12C273.13,443.37 260.98,447.31 254.78,448.89C248.57,450.46 239.90,451.98 235.50,452.25zM236.68,441.92C241.74,441.96 248.94,441.35 252.68,440.54C256.43,439.74 263.32,437.77 268.00,436.16C272.68,434.54 292.70,427.14 312.50,419.71C332.30,412.28 358.85,402.15 371.50,397.19C384.15,392.24 407.55,383.02 423.50,376.70C439.45,370.38 457.90,362.86 464.50,359.98C471.10,357.11 477.79,353.84 479.36,352.73C480.94,351.61 482.85,349.21 483.61,347.38C484.38,345.56 485.00,341.38 485.00,338.11C485.00,333.13 484.57,331.64 482.36,329.02C480.91,327.29 475.62,323.82 470.61,321.30C465.60,318.78 452.95,312.79 442.50,307.98C432.05,303.16 417.65,296.53 410.50,293.22C403.35,289.92 395.25,286.44 392.50,285.48C389.75,284.52 384.12,283.53 380.00,283.28C374.69,282.95 369.60,283.43 362.58,284.91C357.12,286.06 342.72,289.68 330.58,292.94C318.44,296.21 293.20,303.23 274.50,308.54C255.80,313.86 230.15,321.11 217.50,324.66C204.85,328.21 179.65,334.87 161.50,339.45C143.35,344.03 124.26,348.50 119.07,349.39C113.89,350.28 108.26,351.00 106.57,351.00C104.88,351.01 101.37,350.25 98.77,349.32C96.17,348.38 93.71,347.96 93.30,348.37C92.88,348.78 93.44,350.76 94.52,352.78C95.61,354.79 99.20,358.61 102.50,361.28C105.80,363.95 116.38,371.88 126.00,378.91C135.62,385.95 150.93,396.88 160.00,403.20C169.07,409.52 182.79,418.86 190.48,423.95C198.17,429.04 207.07,434.52 210.26,436.13C213.45,437.74 218.64,439.68 221.78,440.45C224.93,441.21 231.63,441.87 236.68,441.92zM237.50,433.65C230.28,433.86 225.13,433.52 222.50,432.65C220.30,431.93 217.01,430.56 215.19,429.61C213.37,428.66 210.22,426.42 208.19,424.63C206.16,422.85 197.75,416.72 189.50,411.01C181.25,405.31 167.30,395.44 158.50,389.08C149.70,382.73 141.15,376.26 139.50,374.71C137.85,373.17 142.12,375.57 149.00,380.05C155.88,384.53 166.90,391.95 173.50,396.54C180.10,401.14 189.78,408.33 195.00,412.53C200.22,416.73 207.01,421.45 210.08,423.01C213.15,424.58 219.39,426.57 223.94,427.43C228.50,428.29 236.87,429.00 242.55,429.00C248.37,429.00 253.15,429.44 253.50,430.00C253.84,430.55 252.86,431.53 251.31,432.17C249.76,432.81 243.55,433.48 237.50,433.65zM220.00,402.57C212.22,402.87 208.46,402.59 205.50,401.46C203.30,400.63 197.24,396.91 192.02,393.21C186.81,389.50 181.99,385.35 181.31,383.99C180.28,381.94 180.33,381.24 181.55,380.02C182.57,379.00 183.45,378.84 184.34,379.52C185.06,380.06 189.65,383.15 194.54,386.40C199.43,389.64 205.25,393.12 207.47,394.12C209.69,395.13 213.60,395.97 216.16,395.98C218.73,395.99 224.13,395.36 228.16,394.59C232.20,393.81 240.04,391.61 245.59,389.70C251.14,387.78 257.10,385.48 258.84,384.58C260.58,383.68 262.00,382.52 262.00,381.99C262.00,381.47 260.29,380.17 258.20,379.10C256.12,378.04 252.77,376.86 250.76,376.48C247.91,375.95 245.95,376.37 241.81,378.39C238.89,379.82 232.00,382.15 226.50,383.57C219.66,385.33 215.02,385.98 211.83,385.63C209.26,385.34 204.76,383.90 201.83,382.42C198.90,380.94 194.62,378.44 192.32,376.87C190.02,375.29 187.35,374.00 186.39,374.00C185.42,374.00 182.03,374.73 178.86,375.62C175.69,376.51 172.04,376.98 170.77,376.66C169.50,376.34 165.09,373.55 160.98,370.45C156.86,367.36 151.81,363.96 149.75,362.90C147.40,361.68 146.00,360.25 146.00,359.05C146.00,358.00 147.13,356.26 148.51,355.17C149.88,354.09 156.07,351.62 162.26,349.68C168.44,347.74 182.05,343.58 192.50,340.44C202.95,337.30 215.55,333.50 220.50,331.99C225.45,330.48 239.40,326.29 251.50,322.68C263.60,319.07 284.52,312.69 298.00,308.50C311.48,304.30 327.90,299.29 334.49,297.35C343.41,294.72 347.48,293.98 350.39,294.45C352.54,294.79 355.61,296.18 357.22,297.54C359.19,299.19 361.36,299.99 363.83,299.98C365.85,299.96 369.30,299.54 371.50,299.03C373.86,298.48 376.38,297.00 377.65,295.42C379.31,293.33 380.34,292.87 382.28,293.36C383.66,293.70 385.09,294.77 385.46,295.74C385.94,296.98 385.24,298.25 383.08,300.06C381.40,301.47 377.61,303.39 374.67,304.31C371.73,305.24 367.29,306.00 364.81,306.00C361.16,306.00 359.38,305.31 355.58,302.41C351.88,299.58 350.31,298.95 348.19,299.45C346.71,299.80 341.11,301.43 335.75,303.07C330.39,304.71 326.00,306.46 326.00,306.94C326.00,307.43 334.44,312.25 344.75,317.65C355.06,323.06 368.45,329.92 374.50,332.90C381.32,336.26 387.26,338.49 390.14,338.78C393.00,339.06 396.74,338.58 399.88,337.54C402.68,336.61 405.26,335.38 405.62,334.81C405.97,334.24 405.70,333.43 405.02,333.01C404.34,332.59 404.17,332.02 404.64,331.75C405.11,331.47 408.20,330.48 411.50,329.54C414.80,328.61 418.55,327.17 419.84,326.34C421.61,325.20 422.03,324.26 421.57,322.42C421.24,321.09 421.31,320.00 421.73,320.00C422.15,320.01 423.93,320.88 425.69,321.95C427.80,323.24 429.22,325.14 429.90,327.59C430.53,329.90 430.57,331.94 429.99,333.02C429.48,333.97 426.91,335.77 424.28,337.01C421.65,338.26 413.88,341.17 407.00,343.49C400.12,345.80 385.95,351.09 375.50,355.25C365.05,359.40 345.70,366.64 332.50,371.33C319.30,376.02 302.42,381.70 295.00,383.96C287.57,386.21 278.30,388.48 274.38,388.99C270.46,389.50 263.77,391.30 259.51,392.99C255.26,394.69 246.99,397.44 241.14,399.11C233.27,401.36 227.76,402.26 220.00,402.57zM271.50,382.65C272.05,382.48 272.60,381.70 272.73,380.92C272.86,380.14 272.41,378.82 271.73,377.99C271.05,377.16 268.51,374.80 266.07,372.74C263.63,370.68 260.76,369.00 259.69,369.00C258.61,369.00 255.99,369.52 253.87,370.16C251.74,370.80 250.00,371.72 250.00,372.21C250.00,372.71 254.61,375.33 260.25,378.04C265.89,380.75 270.95,382.83 271.50,382.65zM212.57,380.00C213.21,380.00 217.96,378.91 223.12,377.58C228.28,376.25 234.26,374.53 236.41,373.76C240.32,372.36 240.32,372.36 237.21,370.15C235.50,368.93 231.70,366.84 228.77,365.49C223.43,363.05 223.43,363.05 212.48,365.53C206.45,366.89 200.05,368.49 198.26,369.08C196.47,369.67 195.00,370.59 195.00,371.11C195.00,371.64 198.69,373.86 203.20,376.04C207.71,378.22 211.92,380.00 212.57,380.00zM286.41,378.35C289.76,377.59 303.07,373.39 316.00,369.02C328.93,364.64 348.22,357.71 358.89,353.61C369.55,349.51 378.92,345.51 379.71,344.72C380.96,343.47 380.66,342.97 377.42,340.89C375.36,339.58 372.07,337.49 370.09,336.27C368.12,335.04 365.28,334.03 363.78,334.02C362.29,334.01 342.00,340.25 318.69,347.88C295.39,355.51 275.46,362.20 274.41,362.75C273.36,363.29 270.81,364.04 268.75,364.41C266.69,364.79 265.01,365.63 265.01,366.30C265.02,366.96 267.57,369.75 270.68,372.50C273.78,375.25 277.23,378.01 278.33,378.62C279.84,379.47 281.82,379.40 286.41,378.35zM288.00,371.42C285.78,371.78 283.40,371.42 281.50,370.43C279.85,369.57 278.08,368.46 277.56,367.94C276.97,367.37 279.48,367.07 284.13,367.15C290.43,367.27 293.82,366.61 305.08,363.07C312.46,360.75 329.44,355.25 342.81,350.86C356.18,346.47 367.65,343.07 368.31,343.32C368.96,343.56 367.47,344.65 365.00,345.74C362.52,346.83 344.97,352.92 326.00,359.29C307.02,365.65 289.93,371.11 288.00,371.42zM172.50,368.92C174.15,368.88 181.12,367.19 188.00,365.16C196.61,362.62 200.50,361.02 200.50,360.01C200.50,359.21 197.57,356.84 194.00,354.75C188.37,351.46 186.96,351.03 183.51,351.60C181.31,351.96 174.56,353.82 168.51,355.72C162.45,357.63 157.12,359.54 156.66,359.98C156.20,360.42 158.90,362.63 162.66,364.88C166.84,367.39 170.67,368.96 172.50,368.92zM251.48,363.78C254.79,362.74 257.87,361.53 258.31,361.09C258.76,360.64 257.39,358.89 255.26,357.20C253.12,355.51 250.15,353.83 248.66,353.45C247.16,353.07 242.35,353.32 237.97,354.01C232.76,354.81 230.00,355.69 230.00,356.54C230.00,357.25 232.14,359.14 234.75,360.75C237.36,362.36 240.84,364.12 242.48,364.66C244.74,365.41 246.88,365.20 251.48,363.78zM214.60,356.88C218.42,355.54 221.69,355.07 224.85,355.41C227.41,355.69 228.71,355.68 227.75,355.39C226.79,355.09 226.00,354.02 226.00,353.00C226.00,351.99 223.65,349.10 220.77,346.58C217.89,344.06 214.71,342.00 213.69,342.00C212.68,342.00 208.40,343.16 204.18,344.57C199.95,345.98 196.11,347.52 195.64,347.98C195.16,348.45 196.71,350.05 199.14,351.56C201.54,353.07 204.73,355.32 206.24,356.58C208.98,358.86 208.98,358.86 214.60,356.88zM265.96,356.95C267.36,356.92 271.65,355.89 275.50,354.66C279.85,353.27 282.50,351.88 282.50,350.99C282.50,350.21 280.70,348.54 278.50,347.30C276.30,346.05 273.34,345.03 271.93,345.02C270.52,345.01 267.09,345.68 264.30,346.50C261.52,347.33 258.63,348.74 257.89,349.63C256.72,351.04 256.99,351.63 259.98,354.13C261.88,355.71 264.57,356.98 265.96,356.95zM290.50,348.94C291.60,348.96 294.93,348.33 297.90,347.54C300.87,346.75 303.72,345.68 304.24,345.16C304.83,344.57 303.37,342.96 300.34,340.87C296.70,338.35 294.51,337.54 291.50,337.62C289.30,337.67 285.81,338.43 283.75,339.31C281.69,340.18 280.00,341.35 280.00,341.89C280.00,342.44 281.91,344.25 284.25,345.90C286.59,347.56 289.40,348.93 290.50,348.94zM235.50,347.98C237.15,347.96 242.52,346.93 247.43,345.68C252.34,344.43 256.52,342.93 256.72,342.35C256.91,341.76 254.21,339.42 250.72,337.14C247.22,334.86 243.61,333.00 242.69,333.00C241.77,333.00 236.74,334.37 231.51,336.05C226.28,337.72 222.00,339.65 222.00,340.32C222.00,340.99 224.36,343.00 227.25,344.77C230.16,346.57 233.83,347.99 235.50,347.98zM107.00,342.95C110.03,342.97 117.90,341.86 124.50,340.49C131.10,339.12 148.20,334.83 162.50,330.94C176.80,327.06 215.50,316.28 248.50,307.00C281.50,297.72 321.74,286.69 337.92,282.49C354.11,278.30 369.05,274.00 371.13,272.93C373.21,271.87 376.08,269.76 377.49,268.25C378.91,266.74 380.71,263.25 381.50,260.50C382.29,257.75 383.41,247.18 383.99,237.00C384.56,226.82 386.60,193.83 388.52,163.68C390.43,133.53 392.00,104.76 392.00,99.75C392.00,92.53 391.56,89.73 389.90,86.29C388.74,83.90 386.37,80.86 384.63,79.53C382.89,78.20 379.35,76.55 376.76,75.86C372.87,74.82 367.64,74.90 346.78,76.33C332.87,77.29 300.80,79.63 275.50,81.55C250.20,83.46 209.93,86.59 186.00,88.50C162.07,90.41 129.22,92.90 113.00,94.04C96.78,95.18 81.88,96.53 79.90,97.05C77.92,97.57 74.81,99.01 72.99,100.25C71.17,101.49 68.29,104.23 66.59,106.34C63.71,109.92 63.48,110.82 63.19,119.34C62.98,125.90 64.19,138.59 67.47,164.00C69.99,183.53 75.66,228.30 80.06,263.50C84.47,298.70 88.51,329.13 89.04,331.12C89.57,333.11 91.24,335.98 92.75,337.50C94.26,339.03 96.85,340.87 98.50,341.60C100.15,342.33 103.97,342.94 107.00,342.95zM313.00,341.92C313.83,341.97 317.65,340.86 321.48,339.47C325.32,338.08 328.87,336.53 329.36,336.04C329.89,335.51 327.89,333.62 324.44,331.42C318.62,327.70 318.62,327.70 310.06,329.94C305.35,331.17 300.92,332.66 300.22,333.24C299.51,333.82 299.06,334.69 299.22,335.16C299.38,335.63 302.20,337.33 305.50,338.93C308.80,340.53 312.18,341.88 313.00,341.92zM266.00,337.93C266.82,337.93 272.82,336.42 279.32,334.57C285.82,332.71 291.44,330.89 291.82,330.52C292.19,330.14 291.60,329.15 290.50,328.31C289.40,327.47 286.70,325.94 284.50,324.91C282.30,323.88 278.91,323.03 276.96,323.02C275.01,323.01 269.16,324.36 263.96,326.01C258.76,327.67 253.46,329.62 252.18,330.34C250.34,331.37 250.14,331.86 251.18,332.69C251.91,333.26 255.20,334.68 258.50,335.83C261.80,336.98 265.18,337.92 266.00,337.93zM338.50,332.88C339.60,332.90 343.40,331.89 346.94,330.64C350.48,329.39 353.53,327.91 353.72,327.34C353.91,326.78 350.86,324.85 346.95,323.05C341.15,320.37 339.10,319.89 335.82,320.41C333.61,320.77 330.23,321.71 328.31,322.51C326.39,323.32 324.98,324.43 325.17,325.00C325.35,325.56 327.98,327.56 331.00,329.43C334.03,331.31 337.40,332.86 338.50,332.88zM299.58,324.95C300.72,324.98 306.51,323.64 312.45,321.97C318.39,320.30 324.13,318.46 325.21,317.89C326.97,316.94 327.01,316.67 325.65,315.17C324.81,314.25 322.49,312.62 320.49,311.55C316.85,309.60 316.85,309.60 302.42,314.37C294.49,317.00 288.00,319.33 288.00,319.55C288.00,319.78 290.14,321.07 292.75,322.43C295.36,323.79 298.43,324.93 299.58,324.95zM391.00,320.26C388.52,320.51 385.15,320.56 383.50,320.35C381.85,320.15 378.70,319.49 376.50,318.89C374.30,318.29 371.71,317.10 370.75,316.25C369.79,315.39 369.00,314.24 369.00,313.70C369.00,313.08 371.32,312.97 375.25,313.41C378.69,313.79 384.08,314.44 387.23,314.85C390.38,315.27 393.61,315.24 394.39,314.80C395.55,314.16 395.61,313.42 394.71,311.04C394.09,309.41 393.86,307.81 394.19,307.48C394.52,307.15 396.46,307.58 398.51,308.44C400.57,309.30 403.78,310.00 405.65,310.00C408.40,310.00 409.24,310.50 410.05,312.64C410.60,314.09 410.86,315.48 410.61,315.72C410.37,315.96 406.87,316.98 402.84,317.98C398.80,318.99 393.48,320.01 391.00,320.26zM107.40,316.00C106.05,316.00 104.74,315.44 104.49,314.75C104.24,314.06 102.89,303.82 101.48,292.00C100.07,280.18 96.46,250.78 93.46,226.67C90.46,202.57 86.88,173.12 85.50,161.22C84.13,149.32 83.00,137.04 83.00,133.93C83.00,129.85 83.54,127.58 84.93,125.81C85.99,124.46 88.60,122.84 90.72,122.20C92.85,121.56 108.06,119.92 124.54,118.55C141.02,117.17 163.50,115.35 174.50,114.50C185.50,113.64 213.18,111.38 236.00,109.47C258.82,107.55 284.02,105.31 292.00,104.48C299.98,103.66 320.82,101.63 338.33,99.99C355.83,98.35 371.62,97.00 373.42,97.00C375.39,97.00 377.39,97.77 378.45,98.94C380.10,100.77 380.14,103.36 379.03,144.69C378.39,168.79 377.25,202.00 376.50,218.50C375.75,235.00 374.88,249.18 374.56,250.01C374.15,251.05 364.35,253.94 343.24,259.27C326.33,263.53 303.05,269.23 291.50,271.93C279.95,274.63 251.38,281.58 228.00,287.36C204.62,293.14 168.48,301.95 147.68,306.93C126.88,311.92 108.76,316.00 107.40,316.00zM182.45,294.00C183.19,294.00 184.02,293.38 184.31,292.62C184.61,291.86 184.39,287.93 183.83,283.87C183.28,279.82 182.53,265.40 182.16,251.83C181.80,238.26 181.15,226.81 180.72,226.39C180.29,225.96 178.98,226.58 177.80,227.76C175.65,229.90 175.65,229.90 176.91,253.20C177.60,266.02 178.57,280.02 179.06,284.31C179.56,288.61 180.22,292.55 180.54,293.06C180.86,293.58 181.72,294.00 182.45,294.00zM173.13,287.00C174.78,287.00 174.90,286.11 174.55,276.75C174.34,271.11 173.71,265.31 173.15,263.86C172.59,262.41 170.74,259.63 169.03,257.68C167.32,255.73 163.97,253.00 161.58,251.60C159.20,250.20 153.76,247.92 149.50,246.53C145.23,245.14 140.42,244.00 138.80,244.00C136.23,244.00 135.95,244.28 136.52,246.25C136.87,247.49 139.43,253.20 142.19,258.94C145.97,266.79 148.62,270.78 152.86,275.00C156.03,278.16 161.31,282.02 164.91,283.81C168.44,285.56 172.13,287.00 173.13,287.00zM169.94,280.00C169.32,280.00 165.93,277.12 162.41,273.59C158.88,270.07 156.00,266.66 156.00,266.01C156.00,265.36 158.95,267.42 162.56,270.59C166.16,273.75 169.55,277.17 170.09,278.17C170.77,279.44 170.73,280.00 169.94,280.00zM188.66,280.00C188.90,280.00 190.54,279.26 192.30,278.36C194.06,277.46 197.37,275.39 199.65,273.76C201.93,272.14 205.18,268.89 206.86,266.55C208.54,264.21 210.85,259.93 211.99,257.03C213.13,254.14 215.17,245.32 216.53,237.42C217.89,229.53 219.00,222.83 219.00,222.54C219.00,222.24 218.39,222.00 217.66,222.00C216.92,222.00 211.85,225.30 206.41,229.33C200.96,233.36 194.36,238.98 191.74,241.80C189.12,244.63 186.49,248.19 185.91,249.72C185.28,251.34 185.10,255.02 185.48,258.53C185.83,261.85 186.46,265.13 186.89,265.82C187.41,266.67 188.22,265.84 189.39,263.29C190.34,261.20 192.00,258.42 193.08,257.11C194.17,255.79 195.23,254.89 195.44,255.11C195.66,255.32 194.13,258.33 192.05,261.80C189.94,265.29 187.99,270.06 187.65,272.52C187.32,274.96 187.31,277.64 187.63,278.48C187.95,279.31 188.41,280.00 188.66,280.00zM286.61,265.92C286.68,265.96 289.15,265.55 292.11,265.00C295.08,264.45 298.71,263.50 300.19,262.90C301.72,262.28 303.31,260.55 303.90,258.86C304.93,255.91 304.93,255.91 308.67,257.83C312.39,259.74 312.46,259.74 320.48,257.53C324.91,256.31 329.47,254.82 330.60,254.21C331.74,253.61 334.15,250.27 335.98,246.81C337.80,243.34 341.63,237.12 344.49,233.00C347.35,228.88 350.45,224.02 351.39,222.22C352.32,220.42 352.83,218.54 352.53,218.04C352.20,217.52 350.64,217.53 348.74,218.07C346.97,218.58 343.82,219.00 341.76,219.00C339.69,219.00 338.00,218.56 338.00,218.02C338.00,217.48 339.79,216.13 341.97,215.01C344.16,213.90 347.49,211.63 349.37,209.98C351.25,208.33 353.53,205.14 354.42,202.91C355.32,200.67 356.28,196.06 356.56,192.67C356.85,189.28 357.25,185.11 357.45,183.41C357.65,181.72 357.47,179.76 357.04,179.07C356.43,178.08 355.61,178.15 353.18,179.41C351.49,180.28 349.39,181.00 348.52,181.00C347.12,181.00 347.11,180.69 348.39,178.25C349.18,176.74 351.24,174.15 352.98,172.50C354.72,170.85 357.06,168.02 358.18,166.21C359.57,163.95 360.23,161.14 360.26,157.21C360.29,154.07 359.76,149.81 359.08,147.75C358.40,145.69 357.25,144.00 356.52,144.00C355.79,144.00 352.86,146.70 350.00,150.00C347.05,153.41 343.98,156.00 342.90,156.00C341.86,156.00 341.01,155.44 341.01,154.75C341.02,154.06 341.66,151.12 342.43,148.21C343.38,144.66 343.55,141.92 342.96,139.87C342.48,138.18 341.56,136.17 340.92,135.40C339.93,134.21 339.23,134.31 336.32,136.11C334.44,137.28 332.63,137.96 332.30,137.64C331.98,137.31 332.22,134.52 332.84,131.43C333.61,127.61 333.65,125.21 332.96,123.93C332.41,122.89 331.00,121.53 329.83,120.91C328.07,119.97 327.52,120.09 326.60,121.63C326.00,122.64 324.38,125.47 323.00,127.90C321.62,130.34 319.73,132.80 318.80,133.38C317.86,133.96 316.80,134.13 316.43,133.76C316.06,133.39 316.79,128.57 318.04,123.04C319.29,117.51 319.98,112.65 319.57,112.24C319.16,111.83 315.44,111.63 311.30,111.78C307.16,111.94 302.25,112.70 300.39,113.48C298.15,114.42 297.00,114.53 297.00,113.81C297.00,113.08 295.12,112.91 291.39,113.30C287.77,113.67 284.39,114.80 281.84,116.48C279.68,117.92 276.05,120.76 273.78,122.80C271.51,124.83 266.99,130.09 263.73,134.47C260.47,138.86 256.11,145.83 254.04,149.97C251.97,154.11 249.02,161.32 247.47,166.00C245.77,171.16 244.63,176.82 244.58,180.41C244.50,186.31 244.50,186.31 250.40,187.67C253.64,188.41 257.81,189.96 259.66,191.10C261.51,192.24 264.24,195.26 265.73,197.80C268.05,201.77 268.45,203.57 268.47,210.37C268.49,215.58 268.10,218.45 267.33,218.71C266.44,219.02 266.42,218.25 267.24,215.58C268.12,212.69 268.00,211.32 266.56,208.13C265.59,205.97 262.93,202.43 260.65,200.25C258.37,198.07 255.76,196.03 254.85,195.71C253.94,195.40 252.36,195.75 251.35,196.49C249.82,197.61 249.52,199.10 249.64,204.96C249.77,211.51 249.63,212.02 247.89,211.46C246.64,211.07 245.77,211.44 245.34,212.55C244.98,213.48 245.47,217.53 246.41,221.54C247.36,225.55 249.68,232.07 251.58,236.02C254.02,241.11 256.86,244.97 261.26,249.19C264.69,252.47 270.43,257.09 274.00,259.45C277.57,261.80 281.85,264.21 283.50,264.79C285.15,265.37 286.55,265.88 286.61,265.92zM344.59,250.00C345.53,250.00 348.00,248.22 350.07,246.05C352.13,243.88 355.22,239.26 356.93,235.80C359.09,231.40 360.21,227.39 360.64,222.50C361.17,216.38 361.07,215.69 359.80,217.00C359.01,217.82 357.52,220.53 356.49,223.00C355.46,225.47 352.27,231.55 349.40,236.50C346.53,241.45 343.89,246.51 343.53,247.75C343.02,249.47 343.27,250.00 344.59,250.00zM282.05,242.90C277.90,242.85 273.57,242.51 272.44,242.15C271.31,241.79 268.85,240.29 266.97,238.80C265.10,237.32 263.87,235.79 264.26,235.41C264.64,235.03 267.49,235.51 270.59,236.48C274.40,237.68 277.91,238.08 281.42,237.72C284.28,237.42 289.47,235.99 292.94,234.52C297.26,232.71 299.59,232.19 300.29,232.89C300.99,233.59 300.87,234.46 299.91,235.63C299.13,236.57 296.50,238.61 294.05,240.17C290.13,242.67 288.73,242.99 282.05,242.90zM167.53,225.00C168.70,225.00 169.94,224.73 170.27,224.40C170.60,224.07 170.37,222.60 169.76,221.15C169.10,219.57 168.73,213.27 168.86,205.50C169.07,192.50 169.07,192.50 165.28,185.96C163.20,182.36 159.25,176.19 156.50,172.25C153.75,168.31 151.00,165.07 150.39,165.04C149.77,165.02 148.99,167.09 148.64,169.64C148.29,172.19 148.00,178.97 148.00,184.69C148.00,190.60 148.69,198.12 149.59,202.08C150.60,206.53 152.50,211.03 154.84,214.49C156.85,217.48 160.05,221.07 161.94,222.47C163.84,223.86 166.35,225.00 167.53,225.00zM179.27,220.96C180.38,219.60 182.63,215.66 184.26,212.20C186.21,208.07 187.42,203.65 187.76,199.43C188.10,195.15 187.50,188.20 185.99,178.92C184.12,167.50 183.46,165.12 182.42,166.19C181.72,166.91 179.43,170.88 177.32,175.00C173.59,182.32 173.50,182.74 173.64,192.64C173.72,198.22 174.31,206.09 174.95,210.14C175.59,214.19 176.37,218.83 176.68,220.46C177.25,223.41 177.25,223.41 179.27,220.96zM321.78,219.94C319.98,219.90 317.38,219.42 316.00,218.88C314.63,218.33 312.44,216.89 311.15,215.69C309.86,214.49 307.93,211.78 306.85,209.69C305.59,207.23 304.89,203.82 304.87,200.10C304.85,196.92 305.48,192.78 306.27,190.91C307.06,189.03 309.80,185.57 312.37,183.21C316.97,178.98 317.04,178.84 317.65,171.21C318.26,163.50 318.26,163.50 314.74,166.84C312.81,168.67 310.44,171.92 309.47,174.06C308.51,176.20 307.37,177.73 306.93,177.46C306.50,177.19 306.56,175.52 307.06,173.74C307.55,171.96 309.71,168.93 311.85,167.00C313.98,165.07 317.59,162.01 319.87,160.19C322.14,158.37 324.00,156.46 324.00,155.94C324.00,155.42 323.27,155.00 322.37,155.00C321.48,155.00 316.59,157.25 311.50,160.00C306.41,162.75 301.97,165.00 301.63,165.00C301.28,165.00 301.00,164.38 301.00,163.62C301.00,162.86 302.79,160.62 304.98,158.64C307.16,156.67 312.15,153.44 316.06,151.47C320.27,149.35 324.27,148.01 325.84,148.19C328.37,148.48 328.51,148.81 328.80,154.79C328.96,158.29 328.39,163.81 327.51,167.26C326.64,170.66 324.98,174.46 323.81,175.70C321.77,177.87 321.77,177.97 323.60,178.56C324.65,178.89 326.62,179.61 328.00,180.15C329.38,180.69 332.15,182.27 334.18,183.65C336.20,185.04 338.56,187.66 339.43,189.49C340.29,191.31 341.00,195.21 340.99,198.15C340.98,201.66 340.17,205.22 338.63,208.50C337.34,211.25 335.42,214.27 334.36,215.21C333.29,216.15 330.77,217.62 328.75,218.46C326.72,219.31 323.59,219.97 321.78,219.94zM323.63,214.22C324.91,213.98 327.01,212.72 328.29,211.43C329.58,210.15 331.17,206.79 331.82,203.97C332.47,201.15 333.00,197.76 333.00,196.44C333.00,195.12 331.71,192.58 330.13,190.82C327.91,188.33 326.44,187.60 323.68,187.60C321.53,187.60 319.24,188.38 317.95,189.55C316.76,190.62 315.12,192.81 314.29,194.41C313.21,196.49 312.97,198.74 313.45,202.32C313.81,205.06 314.78,208.62 315.61,210.21C316.43,211.80 318.05,213.45 319.21,213.88C320.37,214.31 322.36,214.46 323.63,214.22zM127.43,161.38C128.57,161.03 130.62,159.94 132.00,158.97C133.38,157.99 135.58,156.04 136.91,154.62C138.66,152.73 139.94,152.20 141.66,152.63C143.71,153.14 144.00,152.86 144.00,150.33C144.00,148.74 143.26,146.33 142.36,144.97C141.45,143.61 138.20,139.91 135.14,136.75C132.07,133.59 129.32,131.00 129.03,131.00C128.73,131.00 128.46,135.39 128.41,140.75C128.35,148.23 127.84,151.70 126.22,155.64C125.06,158.47 124.39,161.06 124.74,161.40C125.08,161.74 126.29,161.73 127.43,161.38z" />

</svg>